<svg width="211" height="54" viewBox="0 0 211 54" fill="none" xmlns="http://www.w3.org/2000/svg">
<path d="M63.18 15L63.2 14.98C62.7333 14.0333 62.36 12.9533 62.08 11.74C59 11.82 55.9533 11.86 52.94 11.86V9.6C55.8333 9.6 58.7467 9.56 61.68 9.48C61.5733 8.66667 61.5 7.86667 61.46 7.08L64 6.92C64.04 7.88 64.1067 8.70667 64.2 9.4C66.3333 9.32 67.9533 9.25333 69.06 9.2L69.14 11.46C68.14 11.5133 66.6267 11.58 64.6 11.66C65.0133 13.3267 65.7867 15.0467 66.92 16.82L64.5 18.04C63.06 17.08 61.5133 16.6 59.86 16.6C58.8467 16.6 58.06 16.8067 57.5 17.22C56.94 17.62 56.66 18.1667 56.66 18.86C56.66 19.78 57.0733 20.4933 57.9 21C58.7267 21.4933 59.96 21.74 61.6 21.74C63.0667 21.74 64.6867 21.56 66.46 21.2L66.88 23.46C65.1867 23.82 63.4267 24 61.6 24C59.04 24 57.1333 23.52 55.88 22.56C54.6267 21.6 54 20.3267 54 18.74C54 17.4067 54.5067 16.34 55.52 15.54C56.5333 14.74 57.94 14.34 59.74 14.34C60.9133 14.34 62.06 14.56 63.18 15ZM76.34 17.56C75.2867 18.7333 74.3933 19.76 73.66 20.64L71.88 19.02C73.6 16.9533 75.0867 15.2867 76.34 14.02V12.2H72.4V10.06H76.34V7.14H78.74V11.74C79.8333 10.82 80.8 10.18 81.64 9.82C82.4933 9.44667 83.3467 9.26 84.2 9.26C86.0267 9.26 87.36 9.82667 88.2 10.96C89.04 12.08 89.46 13.9133 89.46 16.46C89.46 18.6733 88.9467 20.3867 87.92 21.6C86.9067 22.8 85.5333 23.4 83.8 23.4C82.6133 23.4 81.5133 23.1333 80.5 22.6L81.3 20.34C82.22 20.74 83.0533 20.94 83.8 20.94C84.76 20.94 85.5067 20.5667 86.04 19.82C86.5867 19.0733 86.86 17.9533 86.86 16.46C86.86 14.66 86.6467 13.4267 86.22 12.76C85.8067 12.08 85.0867 11.74 84.06 11.74C83.4067 11.74 82.6667 11.98 81.84 12.46C81.0267 12.94 79.9933 13.8 78.74 15.04V24.26H76.34V17.56ZM94.24 13.06C97.48 12.2867 99.9333 11.9 101.6 11.9C105.707 11.9 107.76 13.6133 107.76 17.04C107.76 21.36 104.253 23.52 97.24 23.52L97.06 21.24C99.94 21.24 102.013 20.9067 103.28 20.24C104.547 19.5733 105.18 18.5667 105.18 17.22C105.18 16.1933 104.873 15.44 104.26 14.96C103.66 14.48 102.693 14.24 101.36 14.24C100.08 14.24 97.8667 14.6067 94.72 15.34L94.24 13.06ZM112.78 8.8C118.167 8.8 123.647 8.66667 129.22 8.4L129.32 10.8C126.133 11.0667 123.727 11.7667 122.1 12.9C120.473 14.0333 119.66 15.4133 119.66 17.04C119.66 18.3733 120.113 19.4267 121.02 20.2C121.927 20.9733 123.12 21.36 124.6 21.36C125.373 21.36 126.187 21.28 127.04 21.12L127.34 23.56C126.34 23.7467 125.38 23.84 124.46 23.84C122.127 23.84 120.267 23.2467 118.88 22.06C117.493 20.8733 116.8 19.2867 116.8 17.3C116.8 16.0733 117.18 14.9133 117.94 13.82C118.7 12.7267 119.78 11.8067 121.18 11.06V11.02C118.26 11.14 115.46 11.2 112.78 11.2V8.8ZM133.66 10.26V8H141.94V10.26C141.873 10.94 141.727 12.1333 141.5 13.84C142.46 13.8933 143.5 14.0533 144.62 14.32C144.647 13.4533 144.66 11.88 144.66 9.6H147.2C147.2 11.5733 147.167 13.4067 147.1 15.1C148.153 15.5133 149.2 16.04 150.24 16.68L149.12 18.84C148.373 18.3467 147.64 17.94 146.92 17.62C146.8 18.6333 146.64 19.4867 146.44 20.18C146.24 20.86 145.94 21.46 145.54 21.98C145.153 22.4867 144.733 22.9067 144.28 23.24C143.827 23.5733 143.207 23.96 142.42 24.4L141.12 22.28C141.76 21.9333 142.24 21.6467 142.56 21.42C142.893 21.18 143.213 20.86 143.52 20.46C143.827 20.0467 144.047 19.5533 144.18 18.98C144.313 18.4067 144.42 17.66 144.5 16.74C143.353 16.4067 142.24 16.2133 141.16 16.16C140.947 17.4533 140.72 18.5533 140.48 19.46C140.24 20.3667 139.993 21.1 139.74 21.66C139.487 22.2067 139.193 22.64 138.86 22.96C138.54 23.2667 138.22 23.4733 137.9 23.58C137.58 23.6867 137.193 23.74 136.74 23.74C135.633 23.74 134.6 23.2267 133.64 22.2C132.68 21.16 132.2 19.9933 132.2 18.7C132.2 17.46 132.787 16.3933 133.96 15.5C135.147 14.6067 136.78 14.06 138.86 13.86C139.02 12.6067 139.153 11.4067 139.26 10.26H133.66ZM138.52 16.24C137.307 16.4 136.38 16.7067 135.74 17.16C135.113 17.6 134.8 18.1133 134.8 18.7C134.8 19.2467 135.007 19.7933 135.42 20.34C135.833 20.8733 136.227 21.14 136.6 21.14C137.333 21.14 137.973 19.5067 138.52 16.24ZM152.78 8.8C158.167 8.8 163.647 8.66667 169.22 8.4L169.32 10.8C166.133 11.0667 163.727 11.7667 162.1 12.9C160.473 14.0333 159.66 15.4133 159.66 17.04C159.66 18.3733 160.113 19.4267 161.02 20.2C161.927 20.9733 163.12 21.36 164.6 21.36C165.373 21.36 166.187 21.28 167.04 21.12L167.34 23.56C166.34 23.7467 165.38 23.84 164.46 23.84C162.127 23.84 160.267 23.2467 158.88 22.06C157.493 20.8733 156.8 19.2867 156.8 17.3C156.8 16.0733 157.18 14.9133 157.94 13.82C158.7 12.7267 159.78 11.8067 161.18 11.06V11.02C158.26 11.14 155.46 11.2 152.78 11.2V8.8ZM172.34 10.06H176.06V7.14H178.46V11.72C179.607 10.7333 180.62 10.0467 181.5 9.66C182.393 9.26 183.273 9.06 184.14 9.06C185.94 9.06 187.267 9.64 188.12 10.8C188.973 11.9467 189.4 13.8133 189.4 16.4C189.4 17.52 189.273 18.5533 189.02 19.5C189.593 20.1933 190.073 20.8133 190.46 21.36L188.82 22.84C188.393 22.2667 188.113 21.9 187.98 21.74C187.047 23.02 185.767 23.66 184.14 23.66C182.953 23.66 181.987 23.3333 181.24 22.68C180.507 22.0133 180.14 21.14 180.14 20.06C180.14 18.98 180.5 18.1133 181.22 17.46C181.953 16.7933 182.927 16.46 184.14 16.46C185.073 16.46 185.953 16.7467 186.78 17.32C186.793 17.1333 186.8 16.8267 186.8 16.4C186.8 14.5733 186.587 13.3067 186.16 12.6C185.733 11.8933 185.013 11.54 184 11.54C183.333 11.54 182.567 11.8 181.7 12.32C180.847 12.8267 179.767 13.7333 178.46 15.04V24.26H176.06V17.58C175.5 18.1933 174.673 19.1467 173.58 20.44L171.82 18.82C173.273 17.06 174.687 15.46 176.06 14.02V12.2H172.34V10.06ZM186.38 19.82C185.927 19.34 185.547 19.0267 185.24 18.88C184.933 18.72 184.587 18.64 184.2 18.64C183.667 18.64 183.24 18.7733 182.92 19.04C182.613 19.2933 182.46 19.6267 182.46 20.04C182.46 20.4667 182.613 20.8133 182.92 21.08C183.227 21.3333 183.633 21.46 184.14 21.46C185.247 21.46 185.993 20.9133 186.38 19.82ZM199.34 8.4H202.66L202.26 18.6H199.74L199.34 8.4ZM199.54 23V20.2H202.46V23H199.54Z" fill="white"/>
<path d="M9.02362 40.439C8.85421 41.5305 9.60172 42.5526 10.6932 42.722L28.4803 45.4827C29.5718 45.6521 30.5939 44.9046 30.7633 43.8131C30.9327 42.7216 30.1852 41.6994 29.0937 41.53L13.283 39.0761L15.7369 23.2654C15.9063 22.1739 15.1588 21.1517 14.0673 20.9823C12.9758 20.8129 11.9537 21.5604 11.7842 22.6519L9.02362 40.439ZM39.5553 17.3856L9.81937 39.1313L12.1805 42.3601L41.9164 20.6144L39.5553 17.3856Z" fill="white"/>
</svg>
